<?xml version="1.0" encoding="UTF-8" standalone="no"?><svg xmlns="http://www.w3.org/2000/svg" xmlns:xlink="http://www.w3.org/1999/xlink" fill="#ffffff" height="382.8" preserveAspectRatio="xMidYMid meet" version="1" viewBox="108.1 58.6 283.7 382.8" width="283.7" zoomAndPan="magnify"><g id="change1_1"><path d="M 391.707031 309.507812 C 276.136719 318.507812 268.839844 325.804688 259.839844 441.375 C 250.835938 325.804688 243.539062 318.507812 127.972656 309.507812 C 243.539062 300.507812 250.835938 293.210938 259.839844 177.640625 C 268.839844 293.210938 276.136719 300.507812 391.707031 309.507812"/><path d="M 246.273438 127.695312 C 185.738281 132.410156 181.914062 136.234375 177.199219 196.769531 C 172.484375 136.234375 168.664062 132.410156 108.128906 127.695312 C 168.664062 122.980469 172.484375 119.160156 177.199219 58.625 C 181.914062 119.160156 185.738281 122.980469 246.273438 127.695312"/><path d="M 391.871094 165.082031 C 354.441406 167.996094 352.078125 170.359375 349.164062 207.785156 C 346.25 170.359375 343.886719 167.996094 306.460938 165.082031 C 343.886719 162.164062 346.25 159.804688 349.164062 122.375 C 352.078125 159.804688 354.441406 162.164062 391.871094 165.082031"/></g></svg>