<?xml version="1.0" encoding="UTF-8" standalone="no"?><svg xmlns="http://www.w3.org/2000/svg" xmlns:xlink="http://www.w3.org/1999/xlink" fill="#ffffff" height="49.7" preserveAspectRatio="xMidYMid meet" version="1" viewBox="4.0 7.3 58.6 49.7" width="58.6" zoomAndPan="magnify"><g id="change1_1"><path d="M26.3877,47.79443a19.42458,19.42458,0,0,1-6.665-8.28271,1,1,0,0,1,1.84179-.7793A17.42721,17.42721,0,0,0,27.544,46.1626,1,1,0,0,1,26.3877,47.79443Z"/><path d="M18.74219,36.53369c-.12793-.52637-.2334-1.06787-.31543-1.60986a.99961.99961,0,0,1,1.97656-.29981c.07422.48536.16895.96924.28223,1.439A.99978.99978,0,0,1,18.74219,36.53369Z"/><path d="M30.66406,10.7334a.99971.99971,0,0,0,.61524,1.90234,20.22057,20.22057,0,0,1,3.79846-.82074c-.61818,1.79043.22457,3.05261,1.66833,4.1142a4.3172,4.3172,0,0,1,.582.47021c.02636,1.0586-2.02637,2.41163-3.2793,2.62793-3.64534.62825-6.54378.64484-7.42969,2.28711-1.29452,2.4012,1.1315,4.34961,1.9668,5.34961,2.35645,2.82549,3.70362,2.98965,6.04394,2.63526,2.12208-.3193,2.15529.92846,4.65918.95019,1.12325.01277,1.78065.97279,2.63086,1.72559a16.16585,16.16585,0,0,0,3.19141,2.13525c1.86013,1.04158,1.02112,2.5395.2832,4.144-2.00824,4.35119-4.85489,4.74585-7.72656,8.792A6.80952,6.80952,0,0,0,36.56934,49.876a4.79639,4.79639,0,0,1-1.17774-2.332c-.56461-3.01576,4.21212-5.8282-1.17773-9.36719A4.27262,4.27262,0,0,1,32.294,36.21631c-.69129-1.7156.60834-2.166-.25293-4.55518-1.27908-3.55417-6.29157-4.49289-8.90424-7.67273A13.11122,13.11122,0,0,0,26.97754,19.064a12.83985,12.83985,0,0,0,.57031-8.19628,1.33391,1.33391,0,0,0-2.2168-.62549c-3.49486,3.34277-5.66547,1.77024-9.2246,6.1582-1.31543,1.62012-2.4043,4.61914-.12891,9.70215l.0133.03027a22.1934,22.1934,0,0,0-.50994,2.41364c-.08075-.09143-.16016-.17963-.24244-.2666-.55559-3.74073-2.3568-6.62273-6.14471-6.171a6.18011,6.18011,0,0,1-3.20117-.27051A1.31889,1.31889,0,0,0,4.127,23.34814a8.36474,8.36474,0,0,0,3.63086,5.25879,8.69473,8.69473,0,0,0,6.16376,1.19794,4.91212,4.91212,0,0,1,1.29065,2.33862,22.19856,22.19856,0,0,0,1.77216,8.609,1,1,0,0,0,1.83984-.78418,20.36052,20.36052,0,0,1-.92542-13.22638,16.088,16.088,0,0,0,3.5904-1.60455c2.92787,3.66378,7.69,4.47906,8.671,7.20154.60151,1.67146-.68954,2.22032.27832,4.62451a6.166,6.166,0,0,0,2.67773,2.88525c4.00376,2.62706-.50481,3.72274.31055,8.06446a6.28275,6.28275,0,0,0,2.2998,3.84716c1.15113.76407,2.40088.48709,2.81543-1.54785a4.91564,4.91564,0,0,1,.75684-2.0083c2.66419-3.75481,5.68092-4.28,7.91211-9.11133,1.35584-2.783,1.67294-5.16266-1.123-6.72754a14.45267,14.45267,0,0,1-2.8418-1.8872c-1.24857-1.10378-1.9172-2.211-3.93847-2.228-2.15478-.02322-1.98429-1.37742-4.97657-.92822-1.62159.24618-2.31464.33657-4.209-1.93848-.73454-.88118-2.28936-2.10689-1.74414-3.11719.37485-.56619,3.67926-.86555,6.01074-1.26806,1.75586-.30274,5-2.166,4.93946-4.64795a2.657,2.657,0,0,0-1.39649-2.03174c-1.52591-1.1231-1.04971-1.4089-.66675-2.65674a9.62907,9.62907,0,0,1,1.29438.03967c1.01415,1.7382,3.34388,3.59288,5.50225,3.18055a4.46326,4.46326,0,0,0,2.16779-1.26252,20.35712,20.35712,0,0,1,2.633,1.47351c-.15236,2.68773,1.75322,5.86247,5.325,5.221.18762.2663.36468.53913.53973.81452a5.54037,5.54037,0,0,0-1.58642,2.69488c-.3986,1.54106.09927,2.38143.44921,4.22705.72585,3.83046-.30161,5.94614,1.44141,6.68994a2.07077,2.07077,0,0,0,1.96191-.30957c.24048-.13616.53669-.32885.78846-.23931A20.34666,20.34666,0,0,1,21.74707,44.81543a1.00009,1.00009,0,0,0-1.55273,1.26074A22.35111,22.35111,0,1,0,30.66406,10.7334ZM17.65918,17.66016c2.92107-3.59927,4.73858-2.42258,8.16992-5.19873a10.43129,10.43129,0,0,1-.67773,5.78808,12.167,12.167,0,0,1-6.69007,6.18427,11.4576,11.4576,0,0,1,3.88538-5.49189,1.00021,1.00021,0,0,0-1.23047-1.57714,13.42975,13.42975,0,0,0-4.18152,5.45391C16.395,20.66309,16.62909,18.93011,17.65918,17.66016Zm-11.21,6.40918a9.085,9.085,0,0,0,2.87793.02587A2.85749,2.85749,0,0,1,12.574,26.07288a7.25625,7.25625,0,0,0-1.99877-.98548,1.00033,1.00033,0,0,0-.582,1.91406,5.26981,5.26981,0,0,1,1.728.89612,6.43157,6.43157,0,0,1-2.88519-.97522A6.20339,6.20339,0,0,1,6.44922,24.06934Zm35.02-12.03254a20.12115,20.12115,0,0,1,2.62988.71332C43.25438,13.23042,42.22107,12.6523,41.46918,12.0368Zm9.773,4.9488q.67346.6144,1.28924,1.28546A2.34256,2.34256,0,0,1,51.24219,16.9856Zm4.69238,15.74633a29.846,29.846,0,0,0-.37988-5.05468c-.30842-1.61986-.70245-2.48449-.47852-3.35157a4.08975,4.08975,0,0,1,.66706-1.39856,20.0441,20.0441,0,0,1,2.15216,9.2486A3.08612,3.08612,0,0,0,55.93457,32.73193Z"/><path d="M20.262,43a1,1,0,1,1-1-1A1,1,0,0,1,20.262,43Z"/></g></svg>